<?xml version="1.0" encoding="UTF-8"?>
<svg width="224px" height="227px" viewBox="0 0 224 227" version="1.1" xmlns="http://www.w3.org/2000/svg" xmlns:xlink="http://www.w3.org/1999/xlink">
    <title>Artboard</title>
    <g id="Artboard" stroke="none" stroke-width="1" fill="none" fill-rule="evenodd">
        <g id="Group" transform="translate(2, 4)" fill-rule="nonzero">
            <path d="M206.411877,60.8661522 C215.452742,78.9404003 219.36008,98.0412719 217.579997,118.17947 C214.671139,151.087706 199.507611,177.294191 173.181382,197.100337 C158.234854,208.345113 141.343167,215.23486 122.733804,217.798735 C122.064019,217.891004 121.387327,217.936675 120.712703,217.989511 C120.440089,218.010844 120.164372,217.993032 119.58826,217.993032 C119.58826,214.900544 119.58826,211.89042 119.584187,208.573468 C119.570332,199.383556 119.582191,190.500327 119.540834,181.617365 C119.522441,177.667795 118.064228,174.145221 115.928547,170.905321 C114.273186,168.394077 111.897387,166.683063 108.879295,166.414268 C105.180572,166.084873 49.428124,166.061955 41.2409679,166.051515 C35.9614135,166.044761 33.0880708,163.217073 33.0286874,157.918881 C32.9808013,153.646402 33,149.372718 33.0343947,145.099919 C33.0639597,141.384911 33.2085124,137.689414 34.5455086,134.136684 C38.4177704,123.847199 47.4989799,117.478324 58.6515809,117.471333 C95.1270718,117.448467 131.602594,117.476306 168.078106,117.486817 C168.981403,117.487075 169.888897,117.573248 170.786962,117.511485 C171.970204,117.43012 172.342809,117.884142 172.317809,119.067912 C172.235901,122.946001 172.259309,126.826365 172.252051,130.705874 C172.251162,131.180684 172.309847,131.655606 172.362391,132.458729 C182.77825,124.489682 192.948263,116.708712 203.401921,108.710734 C192.977978,100.758766 182.76332,92.9664515 172.278974,84.9684012 C172.278974,89.6670025 172.295103,93.9779565 172.257758,98.288447 C172.253271,98.8053239 171.958582,99.319709 171.747786,99.7173017 C171.226338,99.493724 127.220045,99.6250641 126.526252,99.8365238 C122.398958,99.2113588 119.779422,96.231452 119.745427,92.1740357 C119.679525,84.3063576 119.642841,76.4382264 119.643554,68.5702753 C119.644103,62.518044 123.132236,59.0777469 129.205486,59.0760634 C153.248598,59.0694177 177.291699,59.0723571 201.3348,59.0670858 C202.574039,59.0668129 203.813257,59.0233554 205.052496,59 C205.510668,59.6195489 206.072502,60.1876821 206.411877,60.8661522 Z" id="Shape" fill="#FFD500"></path>
            <path d="M103.768837,0 C103.944293,30.482564 103.979193,60.9402561 104,91.3979533 C104.003675,96.7786882 100.947698,99.8443201 95.4906347,99.8636807 C84.1831115,99.9038117 72.8753823,99.886386 61.5677358,99.8905546 C47.99129,99.8955671 36.6964151,104.941678 27.9550431,115.345499 C21.737803,122.745156 18.5728355,131.437156 18.3095738,141.048516 C18.0650035,149.977495 18.2154624,158.91728 18.2015725,168 C17.7957344,167.8776 17.2279437,167.703798 16.9869642,167.323444 C8.60553382,154.093984 3.06007478,139.828622 1.02976963,124.230888 C-0.203071608,114.759642 -0.371889428,105.293254 0.756884085,95.8280908 C2.38468194,82.1784652 6.65677439,69.360181 13.1591878,57.2434589 C18.5745923,47.152282 25.3310658,38.0836377 33.5959195,30.1802797 C49.6999022,14.7806866 68.6078625,4.76729984 90.717457,1.17362203 C94.9719009,0.482107135 99.3190709,0.359942487 103.768837,0 Z" id="Path" fill="#00296B"></path>
            <path d="M194,41.9838681 C192.060797,42.0353782 190.156831,41.9470894 188.252865,41.9467671 C168.683629,41.9434285 149.114373,41.9648314 129.545199,41.9396795 C128.107356,41.9378335 126.594097,41.862555 125.247141,41.4161087 C121.85364,40.2913536 120.139527,37.6840133 120.127336,34.0683588 C120.094073,24.1975513 120.067862,14.3267175 120,4.30111835 C120.040921,2.86174677 120.120676,1.57715245 120.218604,0 C123.090393,0.420763778 125.862969,0.68928332 128.577673,1.24640249 C151.415356,5.93322863 171.051344,16.6139088 187.277138,33.5842653 C189.49517,35.9040784 191.512842,38.4208313 193.599097,40.8675108 C193.826922,41.1346702 193.893735,41.5423825 194,41.9838681 Z" id="Path" fill="#00296B"></path>
            <path d="M27,184.024854 C28.0768225,183.964588 29.0907617,184.032853 30.1047064,184.032975 C50.7511911,184.035235 71.3976808,184.023124 92.0441444,184.040852 C93.3918885,184.042012 94.7703456,184.121839 96.0810824,184.404081 C99.5185047,185.144297 101.763469,187.848178 101.833802,191.310735 C101.922862,195.694817 101.914308,200.080793 101.999074,204.614636 C102.006986,208.758934 101.962752,212.754529 101.921338,216.750124 C101.914608,217.39936 101.920394,218.048698 101.920394,219 C98.846074,218.729339 95.976625,218.599524 93.1446807,218.208228 C67.507174,214.665804 45.7984043,203.533133 27.7206416,185.441763 C27.3684629,185.089322 27.1943156,184.565504 27,184.024854 Z" id="Path" fill="#FFD500"></path>
        </g>
    </g>
</svg>